<?xml version="1.0" standalone="no"?>
<!DOCTYPE svg PUBLIC "-//W3C//DTD SVG 20010904//EN"
 "http://www.w3.org/TR/2001/REC-SVG-20010904/DTD/svg10.dtd">
<svg version="1.0" xmlns="http://www.w3.org/2000/svg"
 width="1024.000000pt" height="1024.000000pt" viewBox="0 0 1024.000000 1024.000000"
 preserveAspectRatio="xMidYMid meet">

<g transform="translate(0.000000,1024.000000) scale(0.100000,-0.100000)"
fill="#000000" stroke="none">
<path d="M3187 8822 c-15 -16 -17 -46 -17 -220 l0 -202 24 -15 c19 -13 46 -16
120 -13 l95 3 3 -258 3 -257 -742 0 c-661 0 -743 -2 -757 -16 -13 -13 -16 -46
-16 -208 0 -146 3 -196 13 -204 7 -6 44 -12 82 -14 l70 -3 3 -1392 2 -1393
-90 0 c-77 0 -93 -3 -110 -20 -25 -25 -25 -35 0 -60 20 -20 33 -20 3240 -20
3207 0 3220 0 3240 20 11 11 20 25 20 30 0 21 -42 51 -68 50 -15 -1 -53 -2
-85 -1 l-57 1 2 1393 3 1392 70 3 c51 2 73 7 83 19 20 27 17 372 -4 401 l-15
22 -740 0 -739 0 0 255 0 255 99 0 c77 0 103 4 115 16 14 13 16 47 16 217 0
111 -5 209 -10 217 -8 13 -235 15 -1923 18 -1846 2 -1914 2 -1930 -16z m3773
-217 l0 -135 -1845 0 -1845 0 0 135 0 135 1845 0 1845 0 0 -135z m-240 -1856
c0 -893 0 -1736 0 -1874 l0 -250 -321 2 -321 2 -1 675 -2 676 87 0 c65 0 90 4
102 16 22 22 24 370 2 400 -14 19 -39 19 -1133 22 -807 2 -1126 -1 -1145 -9
l-27 -11 -3 -191 c-4 -234 -8 -226 110 -229 l83 -3 0 -673 1 -674 -321 -1
-321 -2 0 1872 0 1873 1603 2 c881 2 1603 3 1605 2 1 -1 2 -732 2 -1625z
m-3305 889 l0 -123 -707 -3 -708 -2 0 127 0 128 708 -2 707 -1 0 -124z m4823
-2 l3 -126 -711 0 -710 0 0 128 0 127 708 -2 707 -1 3 -126z m-4823 -1614 l0
-1393 -628 -2 -627 -2 0 1398 0 1397 628 -2 627 -3 0 -1393z m4655 1 l0 -1398
-392 2 c-216 2 -498 3 -625 3 l-233 0 0 1395 0 1395 625 0 625 0 0 -1397z m77
1345 c-3 -8 -6 -5 -6 6 -1 11 2 17 5 13 3 -3 4 -12 1 -19z m0 -185 c-2 -21 -4
-6 -4 32 0 39 2 55 4 38 2 -18 2 -50 0 -70z m0 -175 c-2 -13 -4 -3 -4 22 0 25
2 35 4 23 2 -13 2 -33 0 -45z m0 -50 c-3 -8 -6 -5 -6 6 -1 11 2 17 5 13 3 -3
4 -12 1 -19z m0 -85 c-2 -16 -4 -5 -4 22 0 28 2 40 4 28 2 -13 2 -35 0 -50z
m0 -125 c-2 -13 -4 -5 -4 17 -1 22 1 32 4 23 2 -10 2 -28 0 -40z m0 -170 c-2
-29 -3 -8 -3 47 0 55 1 79 3 53 2 -26 2 -71 0 -100z m0 -80 c-3 -8 -6 -5 -6 6
-1 11 2 17 5 13 3 -3 4 -12 1 -19z m0 -40 c-3 -8 -6 -5 -6 6 -1 11 2 17 5 13
3 -3 4 -12 1 -19z m0 -135 c-2 -16 -4 -3 -4 27 0 30 2 43 4 28 2 -16 2 -40 0
-55z m-1967 -123 l0 -130 -1069 0 -1070 0 1 123 c0 67 2 125 4 128 2 3 482 6
1068 7 l1066 1 0 -129z m1967 38 c-3 -7 -5 -2 -5 12 0 14 2 19 5 13 2 -7 2
-19 0 -25z m0 -75 c-3 -10 -5 -2 -5 17 0 19 2 27 5 18 2 -10 2 -26 0 -35z m0
-125 c-3 -7 -5 -2 -5 12 0 14 2 19 5 13 2 -7 2 -19 0 -25z m0 -50 c-3 -8 -6
-5 -6 6 -1 11 2 17 5 13 3 -3 4 -12 1 -19z m-3077 -20 c0 -5 0 -308 0 -675 l0
-668 -410 3 -410 2 0 275 c0 151 -1 338 -1 415 0 77 1 257 1 400 l0 260 410
-3 c226 -1 410 -5 410 -9z m915 -663 l0 -670 -407 -3 -408 -2 -2 647 c-2 357
-2 660 0 675 l3 27 407 -2 407 -2 0 -670z m2162 618 c-3 -10 -5 -2 -5 17 0 19
2 27 5 18 2 -10 2 -26 0 -35z m0 -70 c-3 -10 -5 -2 -5 17 0 19 2 27 5 18 2
-10 2 -26 0 -35z m0 -80 c-3 -10 -5 -4 -5 12 0 17 2 24 5 18 2 -7 2 -21 0 -30z
m0 -165 c-2 -24 -4 -7 -4 37 0 44 2 63 4 43 2 -21 2 -57 0 -80z m0 -90 c-3 -8
-6 -5 -6 6 -1 11 2 17 5 13 3 -3 4 -12 1 -19z m0 -120 c-2 -18 -4 -6 -4 27 0
33 2 48 4 33 2 -15 2 -42 0 -60z m0 -200 c-2 -18 -4 -4 -4 32 0 36 2 50 4 33
2 -18 2 -48 0 -65z m0 -140 c-2 -18 -4 -6 -4 27 0 33 2 48 4 33 2 -15 2 -42 0
-60z m0 -180 c-3 -7 -5 -2 -5 12 0 14 2 19 5 13 2 -7 2 -19 0 -25z m0 -65 c-3
-10 -5 -2 -5 17 0 19 2 27 5 18 2 -10 2 -26 0 -35z m0 -55 c-3 -7 -5 -2 -5 12
0 14 2 19 5 13 2 -7 2 -19 0 -25z m0 -65 c-3 -10 -5 -2 -5 17 0 19 2 27 5 18
2 -10 2 -26 0 -35z"/>
<path d="M4995 8176 c-152 -24 -247 -66 -368 -163 -170 -137 -277 -368 -277
-600 0 -222 73 -395 232 -552 150 -149 327 -220 544 -221 333 0 639 239 736
575 18 65 23 104 22 205 0 150 -15 217 -80 349 -39 78 -62 110 -133 181 -48
49 -114 103 -151 124 -111 65 -299 117 -410 115 -19 -1 -71 -7 -115 -13z m265
-96 c183 -44 331 -143 423 -282 143 -215 153 -472 29 -713 -49 -95 -181 -226
-277 -277 -123 -64 -199 -81 -333 -76 -97 4 -132 10 -203 35 -208 72 -367 236
-435 448 -22 67 -26 99 -25 192 0 132 16 200 73 322 32 67 56 100 121 166 110
110 211 163 359 190 105 19 171 18 268 -5z"/>
<path d="M4975 7855 c-24 -23 -25 -30 -25 -150 l0 -125 -138 0 c-94 0 -142 -4
-150 -12 -17 -17 -17 -309 0 -326 8 -8 56 -12 150 -12 l138 0 0 -119 c0 -105
2 -121 21 -145 20 -26 22 -26 150 -26 174 0 171 -3 167 166 l-3 124 25 2 c14
0 75 0 136 -1 149 -3 144 -10 144 173 0 184 8 176 -168 176 l-132 0 0 118 c0
99 -3 122 -20 150 l-20 32 -125 0 c-120 0 -127 -1 -150 -25z m225 -208 c0 -90
4 -137 12 -145 8 -8 55 -12 145 -12 l133 0 0 -82 0 -83 -125 3 c-76 2 -132 -1
-145 -8 -19 -10 -20 -20 -20 -145 l0 -135 -80 0 -80 0 0 133 c0 90 -4 137 -12
145 -8 8 -55 12 -145 12 l-133 0 0 80 0 80 126 0 c69 0 134 5 145 10 17 10 19
22 19 145 l0 135 80 0 80 0 0 -133z"/>
<path d="M2512 7048 c-17 -17 -17 -669 0 -686 17 -17 549 -17 566 0 9 9 12 99
12 345 0 318 -1 333 -19 343 -29 15 -543 14 -559 -2z m488 -343 l0 -265 -205
0 -205 0 0 265 0 265 205 0 205 0 0 -265z"/>
<path d="M2518 5779 c-17 -9 -18 -36 -18 -343 0 -310 1 -334 18 -349 16 -15
50 -17 273 -17 214 0 258 2 277 16 22 15 22 16 22 343 0 305 -1 329 -18 344
-16 15 -50 17 -278 17 -157 0 -266 -5 -276 -11z m482 -349 c0 -241 -1 -260
-17 -260 -10 -1 -102 -2 -206 -3 l-187 -2 0 263 0 262 205 0 205 0 0 -260z"/>
<path d="M7156 7044 c-14 -13 -16 -58 -16 -335 0 -202 4 -327 10 -340 10 -18
24 -19 290 -19 266 0 280 1 290 19 6 13 10 137 10 336 0 199 -4 323 -10 336
-10 18 -24 19 -285 19 -235 0 -276 -2 -289 -16z m484 -339 l0 -265 -200 0
-200 0 0 265 0 265 200 0 200 0 0 -265z"/>
<path d="M7157 5772 c-15 -17 -17 -55 -17 -340 0 -309 1 -323 20 -342 19 -19
33 -20 280 -20 247 0 261 1 280 20 19 19 20 33 20 343 0 301 -1 325 -18 340
-16 15 -51 17 -284 17 -244 0 -266 -1 -281 -18z m483 -344 l0 -263 -200 3
-200 3 0 259 0 260 200 0 200 0 0 -262z"/>
<path d="M3985 3790 c-42 -16 -58 -65 -41 -118 8 -25 53 -52 86 -52 34 0 80
29 91 57 30 79 -52 148 -136 113z"/>
<path d="M4975 3789 c-32 -18 -45 -40 -45 -77 0 -45 13 -67 49 -82 39 -16 92
-6 117 21 26 29 25 93 -2 120 -25 24 -91 34 -119 18z"/>
<path d="M3665 3778 c-3 -7 -4 -211 -3 -453 l3 -440 80 0 80 0 0 450 0 450
-78 3 c-56 2 -79 -1 -82 -10z"/>
<path d="M3150 3770 c-208 -32 -343 -206 -344 -444 0 -204 74 -346 217 -415
197 -97 440 -38 530 128 16 28 25 56 21 62 -3 6 -32 22 -62 36 l-56 25 -20
-29 c-80 -112 -201 -144 -317 -85 -97 49 -148 165 -135 310 14 166 103 262
242 262 76 -1 129 -25 181 -84 l41 -46 43 15 c97 35 101 45 42 127 -76 106
-230 161 -383 138z"/>
<path d="M6897 3540 c-63 -16 -112 -47 -159 -99 -58 -64 -82 -138 -82 -248 0
-74 4 -89 35 -150 62 -122 166 -179 313 -171 94 5 151 28 218 88 l43 38 -35
37 c-56 59 -63 60 -115 21 -96 -73 -209 -59 -272 34 -13 18 -23 41 -23 51 0
17 14 19 218 21 l217 3 -1 85 c-1 65 -6 97 -24 137 -25 58 -83 117 -137 139
-44 19 -147 26 -196 14z m142 -146 c31 -18 50 -44 62 -86 l8 -28 -145 0 -144
0 15 37 c18 44 42 72 70 84 34 13 105 10 134 -7z"/>
<path d="M4483 3521 c-23 -11 -51 -29 -62 -40 l-21 -21 0 24 c0 38 -22 49 -92
43 -35 -3 -64 -6 -66 -6 -1 -1 -1 -144 0 -318 l3 -318 63 -3 c38 -2 69 2 78 9
11 9 14 51 14 206 0 210 4 231 56 272 54 43 152 21 185 -40 6 -13 10 -93 9
-208 0 -104 4 -200 10 -215 9 -24 14 -26 73 -26 36 0 68 5 75 12 16 16 17 426
1 483 -27 102 -113 165 -223 165 -38 0 -77 -8 -103 -19z"/>
<path d="M5375 3516 c-68 -31 -131 -104 -152 -175 -24 -80 -21 -210 6 -282 43
-115 132 -180 253 -187 81 -5 122 8 176 54 l41 35 3 -158 3 -158 75 0 75 0 3
434 c2 341 0 436 -10 443 -20 12 -123 9 -136 -4 -7 -7 -12 -25 -12 -41 l0 -29
-40 35 c-73 62 -193 76 -285 33z m246 -149 c18 -12 44 -40 57 -62 19 -34 22
-52 20 -112 -4 -80 -20 -111 -79 -151 -47 -33 -145 -28 -185 8 -79 73 -85 219
-11 298 30 32 52 41 113 41 37 1 60 -5 85 -22z"/>
<path d="M4020 3520 l-65 -5 0 -315 0 -315 75 0 75 0 3 316 c2 249 0 318 -10
320 -7 2 -42 2 -78 -1z"/>
<path d="M4949 3514 c-5 -7 -8 -140 -7 -320 l3 -309 75 0 75 0 3 318 c1 174
-1 317 -5 318 -56 6 -137 2 -144 -7z"/>
<path d="M5987 3523 c-11 -11 -8 -455 4 -496 13 -49 63 -105 114 -128 83 -38
204 -19 273 44 l22 20 0 -35 c0 -23 5 -38 16 -42 28 -11 120 -6 132 6 17 17
17 609 0 626 -7 7 -39 12 -73 12 -34 0 -66 -5 -73 -12 -9 -9 -12 -69 -12 -210
0 -158 -3 -205 -15 -228 -29 -55 -104 -75 -169 -45 -58 28 -61 40 -64 270 -3
147 -7 212 -15 217 -15 10 -131 10 -140 1z"/>
<path d="M3685 2577 c-3 -6 -4 -201 -3 -432 l3 -420 75 0 75 0 5 200 c5 217 9
232 63 265 57 35 140 19 169 -33 9 -15 15 -87 18 -227 l5 -205 75 0 75 0 3
213 c1 123 -2 229 -8 251 -24 90 -95 148 -195 158 -63 7 -127 -13 -175 -54
l-30 -25 0 155 c0 176 5 167 -91 167 -39 0 -61 -4 -64 -13z"/>
<path d="M5075 2577 c-3 -6 -4 -201 -3 -432 l3 -420 71 -3 c67 -3 72 -1 78 20
10 39 7 794 -4 822 -9 24 -14 26 -75 26 -43 0 -67 -4 -70 -13z"/>
<path d="M6775 2565 c-56 -55 -16 -138 65 -138 53 0 90 33 90 80 0 49 -37 83
-90 83 -30 0 -47 -6 -65 -25z"/>
<path d="M1468 2335 c-21 -7 -53 -26 -72 -40 l-35 -26 -3 33 -3 33 -70 0 -70
0 0 -430 0 -430 75 0 75 0 3 163 2 163 25 -29 c57 -68 191 -86 288 -38 101 49
149 146 149 299 0 137 -53 241 -146 289 -52 27 -165 34 -218 13z m133 -148
c92 -61 105 -210 26 -295 -102 -107 -269 -18 -267 143 1 39 23 101 47 127 45
51 138 63 194 25z"/>
<path d="M2036 2336 c-59 -22 -88 -47 -113 -96 -46 -90 -16 -196 67 -236 25
-12 78 -29 118 -39 94 -22 120 -43 107 -81 -7 -19 -22 -33 -49 -43 -46 -18
-109 -5 -169 35 -22 14 -44 23 -50 21 -18 -8 -60 -94 -54 -111 16 -40 180 -92
262 -82 163 19 244 107 221 244 -12 75 -58 111 -190 146 -117 31 -153 68 -108
109 36 33 77 32 148 -3 36 -17 67 -30 68 -28 16 17 46 93 42 104 -3 8 -31 27
-63 41 -70 32 -178 41 -237 19z"/>
<path d="M3263 2336 c-96 -31 -168 -99 -203 -192 -30 -80 -24 -196 13 -270 54
-107 159 -169 288 -168 55 0 79 6 132 32 64 32 107 71 107 97 0 8 -23 30 -51
50 l-50 38 -32 -30 c-43 -41 -69 -53 -115 -53 -44 0 -93 29 -126 73 -31 41
-35 150 -8 210 46 105 183 119 253 26 l16 -22 56 37 c32 19 57 40 57 46 0 21
-65 81 -116 106 -65 32 -159 40 -221 20z"/>
<path d="M4546 2331 c-137 -56 -209 -157 -210 -296 0 -104 25 -168 93 -236 65
-65 129 -91 225 -92 87 -1 156 26 220 84 74 68 100 129 100 239 1 68 -4 95
-23 137 -27 62 -94 126 -159 156 -68 30 -182 33 -246 8z m195 -144 c95 -63
106 -222 19 -300 -49 -45 -96 -55 -155 -32 -58 22 -91 62 -105 130 -14 65 -7
107 25 156 44 69 149 91 216 46z"/>
<path d="M5531 2331 c-142 -53 -219 -176 -209 -335 18 -266 333 -387 532 -205
74 67 99 128 100 239 0 103 -24 166 -87 228 -85 83 -225 114 -336 73z m190
-144 c110 -73 100 -271 -17 -328 -122 -58 -233 38 -222 191 5 67 24 101 78
138 45 30 115 30 161 -1z"/>
<path d="M6205 2337 c-62 -16 -136 -97 -159 -173 -27 -89 -19 -220 16 -290 82
-159 279 -203 395 -87 l43 43 -5 -43 c-4 -23 -8 -56 -11 -74 -7 -46 -60 -99
-114 -113 -55 -15 -123 -2 -189 35 -23 14 -47 25 -51 25 -4 0 -20 -25 -36 -56
l-29 -55 30 -25 c53 -42 119 -59 235 -59 88 0 113 4 155 23 65 30 108 73 137
136 22 49 23 62 26 369 3 237 0 322 -8 333 -13 14 -93 20 -124 8 -10 -4 -16
-18 -16 -35 0 -16 -3 -29 -6 -29 -3 0 -22 13 -42 29 -20 16 -52 34 -71 40 -41
13 -122 13 -176 -2z m221 -148 c65 -39 90 -168 48 -240 -62 -106 -206 -106
-268 0 -28 48 -27 145 2 192 47 76 138 96 218 48z"/>
<path d="M7210 2341 c-78 -25 -137 -78 -172 -156 -19 -42 -22 -67 -22 -155 1
-120 17 -170 79 -238 92 -102 261 -118 347 -32 l38 37 2 -161 3 -161 75 0 75
0 3 424 c2 333 0 426 -10 433 -15 9 -99 11 -122 2 -11 -4 -16 -19 -16 -42 l0
-36 -27 26 c-16 14 -44 34 -63 43 -38 20 -151 29 -190 16z m201 -154 c48 -32
69 -79 69 -157 0 -49 -6 -75 -23 -104 -61 -108 -209 -106 -264 4 -47 92 -19
222 57 262 49 25 119 24 161 -5z"/>
<path d="M8603 2334 c-60 -22 -127 -86 -159 -151 -40 -80 -45 -203 -14 -287
26 -68 82 -129 146 -157 136 -60 275 -40 378 56 l39 36 -43 44 c-50 51 -59 53
-86 24 -89 -99 -263 -65 -299 58 l-6 23 213 2 213 3 3 71 c5 132 -59 242 -163
278 -59 20 -165 20 -222 0z m178 -130 c26 -13 59 -68 59 -98 0 -14 -18 -16
-135 -16 -86 0 -135 4 -135 10 0 21 28 76 48 93 41 37 104 41 163 11z"/>
<path d="M2423 2333 c-7 -2 -13 -12 -13 -20 0 -19 47 -146 151 -410 77 -193
80 -203 66 -230 -27 -51 -64 -77 -107 -76 -39 2 -39 2 -57 -53 -20 -63 -14
-73 45 -81 91 -12 185 35 238 119 32 50 274 696 274 731 0 20 -22 27 -86 27
-57 0 -73 -12 -89 -70 -26 -96 -118 -370 -124 -370 -3 0 -35 87 -70 193 -87
262 -78 247 -154 246 -34 0 -68 -3 -74 -6z"/>
<path d="M6775 2331 c-6 -6 -9 -130 -7 -311 l3 -301 72 3 72 3 3 294 c2 208
-1 298 -9 307 -13 16 -120 19 -134 5z"/>
<path d="M7765 2330 c-4 -6 -6 -112 -6 -236 1 -248 5 -266 61 -321 79 -77 213
-82 302 -12 45 35 46 35 40 4 -8 -43 15 -58 80 -52 31 3 61 8 67 12 8 4 11
102 11 299 0 241 -3 296 -14 305 -9 7 -40 11 -78 9 l-63 -3 -5 -200 c-5 -211
-9 -227 -56 -264 -49 -38 -146 -21 -176 32 -9 15 -15 87 -18 227 l-5 205 -67
3 c-40 2 -69 -1 -73 -8z"/>
</g>
</svg>
