<?xml version="1.0" standalone="yes"?>
<svg xmlns="http://www.w3.org/2000/svg" width="1366" height="768">
<path style="fill:#ffffff; stroke:none;" d="M0 0L0 308L0 394L0 418C0 421.103 -0.823864 425.712 0.603395 428.57C2.53577 432.44 12.2011 433.385 16 435C29.3942 440.694 41.4163 447.338 53 456.235C80.2968 477.203 101.304 504.325 135 515.921C204.028 539.676 271.377 498.847 341 507.285C375.052 511.413 404.374 523.034 425.764 551C446.571 578.204 455.662 613.635 487 631.573C505.956 642.423 527.45 646.061 549 647.039C554.31 647.28 559.654 648.683 565 647.852C572.15 646.74 577.669 638.004 583 633.615C594.49 624.155 607.353 616.362 621 610.424C670.477 588.899 729.329 586.946 775 556.921C820.326 527.123 831.015 474.946 843.884 426C854.661 385.013 868.195 344.783 894.662 311C908.069 293.887 924.685 279.633 942 266.627C982.335 236.328 1027.54 215.691 1077 205.8C1104.82 200.238 1133.16 198.567 1161 193C1179.39 189.323 1197.84 184.355 1213 172.764C1250.61 144.008 1265.43 95.2092 1289 56C1303.1 32.5461 1323.64 8.88275 1351 1C1347.3 -0.552002 1342.98 0 1339 0L1316 0L1236 0L960 0L0 0z"/>
<path style="fill:#ffeac5; stroke:none;" d="M527 768L1366 768L1366 0C1361.11 0 1355.8 -0.571228 1351 0.529297C1346.08 1.65747 1341.46 4.48743 1337 6.75616C1318.53 16.1497 1304.56 30.8242 1293.34 48C1274.54 76.8024 1262.42 109.382 1243.33 138C1233.04 153.436 1220.33 168.784 1204 178.127C1182.51 190.423 1157.19 194.276 1133 197.286C1111.28 199.989 1089.41 202.697 1068 207.424C1006.61 220.985 948.966 252.945 905.015 298C871.425 332.433 855.831 379.562 843.884 425C831.944 470.413 822.378 518.249 784 549.389C757.041 571.263 722.012 580.015 689 588.374C641.498 600.402 590.284 615.111 560.298 657C548.896 672.927 541.726 690.373 536.139 709C530.52 727.732 527 748.453 527 768z"/>
<path style="fill:#ffdcc6; stroke:none;" d="M0.666667 430.333C0.22215 430.778 1.27784 430.722 1.33333 430.667C1.77774 430.222 0.722179 430.278 0.666667 430.333z"/>
<path style="fill:#ffa065; stroke:none;" d="M0 431L0 768L527 768C527 739.128 533.654 708.052 546.258 682C549.609 675.074 553.243 668.406 557.515 662C560.634 657.325 564.664 653.1 567 648C529.849 648 491.168 642.753 465.289 613C439.629 583.498 431.176 539.703 393 521.486C357.693 504.639 315.979 503.944 278 510.285C247.701 515.345 216.931 524.971 186 524.971C173.586 524.971 161.061 522.979 149 520.116C121.695 513.634 99.4457 497.321 79 478.83C56.8435 458.792 31.7337 433.592 0 431z"/>
<path style="fill:#ffdec9; stroke:none;" d="M4.66667 431.333C4.2222 431.778 5.27782 431.722 5.33333 431.667C5.77778 431.222 4.72223 431.278 4.66667 431.333z"/>
<path style="fill:#ffeadd; stroke:none;" d="M8.66667 432.333C8.22229 432.778 9.27777 432.722 9.33333 432.667C9.77783 432.222 8.7222 432.278 8.66667 432.333z"/>
<path style="fill:#ffe8da; stroke:none;" d="M11.6667 433.333C11.2223 433.778 12.2778 433.722 12.3333 433.667C12.7778 433.222 11.7222 433.278 11.6667 433.333z"/>
<path style="fill:#ffe5d5; stroke:none;" d="M14.6667 434.333C14.2223 434.778 15.2778 434.722 15.3333 434.667C15.7778 434.222 14.7222 434.278 14.6667 434.333z"/>
<path style="fill:#ffcfb2; stroke:none;" d="M22 437L23 438L22 437z"/>
<path style="fill:#ffccad; stroke:none;" d="M36 444L37 445L36 444M45 450L46 451L45 450z"/>
<path style="fill:#ffd8bf; stroke:none;" d="M52 455L53 456L52 455z"/>
<path style="fill:#ffd6bd; stroke:none;" d="M57 459L58 460L57 459z"/>
<path style="fill:#ffd5bb; stroke:none;" d="M66 467L67 468L66 467z"/>
<path style="fill:#ffcdaf; stroke:none;" d="M67 468L68 469L67 468z"/>
<path style="fill:#ffc7a4; stroke:none;" d="M68 469L69 470L68 469z"/>
<path style="fill:#ffd5ba; stroke:none;" d="M79 479L80 480L79 479z"/>
<path style="fill:#ffc7a4; stroke:none;" d="M80 480L81 481L80 480z"/>
<path style="fill:#ffd1b5; stroke:none;" d="M88 487L89 488L88 487z"/>
<path style="fill:#ffccac; stroke:none;" d="M95 493L96 494L95 493z"/>
<path style="fill:#ffd0b3; stroke:none;" d="M103 499L104 500L103 499z"/>
<path style="fill:#ffd7be; stroke:none;" d="M106 501L107 502L106 501z"/>
<path style="fill:#ffd2b5; stroke:none;" d="M109 503L110 504L109 503z"/>
<path style="fill:#ffd0b3; stroke:none;" d="M307 506C312.222 508.191 319.368 507 325 507C319.778 504.809 312.632 506 307 506z"/>
<path style="fill:#ffe2d0; stroke:none;" d="M325 506C327.613 507.098 330.165 506.993 333 507C330.387 505.902 327.836 506.007 325 506z"/>
<path style="fill:#ffc8a6; stroke:none;" d="M116 507L117 508L116 507z"/>
<path style="fill:#ffe9db; stroke:none;" d="M295.667 507.333C295.222 507.778 296.278 507.722 296.333 507.667C296.778 507.222 295.722 507.278 295.667 507.333z"/>
<path style="fill:#ffc49f; stroke:none;" d="M297 507C299.052 507.874 300.747 507.953 303 508C300.948 507.126 299.253 507.047 297 507z"/>
<path style="fill:#ffc8a6; stroke:none;" d="M340 507C341.248 507.685 341.548 507.749 343 508C341.752 507.315 341.452 507.251 340 507z"/>
<path style="fill:#ffc9a8; stroke:none;" d="M118 508L119 509L118 508z"/>
<path style="fill:#ffe4d3; stroke:none;" d="M287.667 508.333C287.222 508.778 288.278 508.722 288.333 508.667C288.778 508.222 287.722 508.278 287.667 508.333z"/>
<path style="fill:#ffcdad; stroke:none;" d="M289.667 508.333C289.222 508.778 290.278 508.722 290.333 508.667C290.778 508.222 289.722 508.278 289.667 508.333z"/>
<path style="fill:#ffb688; stroke:none;" d="M291.667 508.333C291.222 508.778 292.278 508.722 292.333 508.667C292.778 508.222 291.722 508.278 291.667 508.333z"/>
<path style="fill:#ffc09a; stroke:none;" d="M347 508C348.248 508.685 348.548 508.749 350 509C348.752 508.315 348.452 508.251 347 508z"/>
<path style="fill:#ffc7a5; stroke:none;" d="M120 509L121 510L120 509z"/>
<path style="fill:#ffd6bc; stroke:none;" d="M281 509C282.248 509.685 282.548 509.749 284 510C282.752 509.315 282.452 509.251 281 509z"/>
<path style="fill:#ffc9a7; stroke:none;" d="M354 509C355.248 509.685 355.548 509.749 357 510C355.752 509.315 355.452 509.251 354 509z"/>
<path style="fill:#ffcfb2; stroke:none;" d="M275.667 510.333C275.222 510.778 276.278 510.722 276.333 510.667C276.778 510.222 275.722 510.278 275.667 510.333z"/>
<path style="fill:#ffd8bf; stroke:none;" d="M360.667 510.333C360.222 510.778 361.278 510.722 361.333 510.667C361.778 510.222 360.722 510.278 360.667 510.333M269.667 511.333C269.222 511.778 270.278 511.722 270.333 511.667C270.778 511.222 269.722 511.278 269.667 511.333z"/>
<path style="fill:#ffb587; stroke:none;" d="M271.667 511.333C271.222 511.778 272.278 511.722 272.333 511.667C272.778 511.222 271.722 511.278 271.667 511.333z"/>
<path style="fill:#ffd6bc; stroke:none;" d="M364.667 511.333C364.222 511.778 365.278 511.722 365.333 511.667C365.778 511.222 364.722 511.278 364.667 511.333z"/>
<path style="fill:#ffd0b2; stroke:none;" d="M264.667 512.333C264.222 512.778 265.278 512.722 265.333 512.667C265.778 512.222 264.722 512.278 264.667 512.333z"/>
<path style="fill:#ffd9c2; stroke:none;" d="M368.667 512.333C368.222 512.778 369.278 512.722 369.333 512.667C369.778 512.222 368.722 512.278 368.667 512.333z"/>
<path style="fill:#ffd3b7; stroke:none;" d="M259 513C260.248 513.685 260.548 513.749 262 514C260.752 513.315 260.452 513.251 259 513z"/>
<path style="fill:#ffd6bc; stroke:none;" d="M254 514C255.248 514.685 255.548 514.749 257 515C255.752 514.315 255.452 514.251 254 514z"/>
<path style="fill:#ffeadd; stroke:none;" d="M375.667 514.333C375.222 514.778 376.278 514.722 376.333 514.667C376.778 514.222 375.722 514.278 375.667 514.333z"/>
<path style="fill:#ffd4b9; stroke:none;" d="M249 515C250.248 515.685 250.549 515.749 252 516C250.752 515.315 250.452 515.251 249 515z"/>
<path style="fill:#ffcfb2; stroke:none;" d="M244.667 516.333C244.222 516.778 245.278 516.722 245.333 516.667C245.778 516.222 244.722 516.278 244.667 516.333z"/>
<path style="fill:#ffe3d2; stroke:none;" d="M139.667 517.333C139.222 517.778 140.278 517.722 140.333 517.667C140.778 517.222 139.722 517.278 139.667 517.333z"/>
<path style="fill:#ffcbaa; stroke:none;" d="M239 517C240.248 517.685 240.548 517.749 242 518C240.752 517.315 240.452 517.251 239 517z"/>
<path style="fill:#ffe8da; stroke:none;" d="M383.667 517.333C383.222 517.778 384.278 517.722 384.333 517.667C384.778 517.222 383.722 517.278 383.667 517.333z"/>
<path style="fill:#ffe1cf; stroke:none;" d="M142.667 518.333C142.222 518.778 143.278 518.722 143.333 518.667C143.778 518.222 142.722 518.278 142.667 518.333z"/>
<path style="fill:#ffd9c1; stroke:none;" d="M233 518C234.248 518.685 234.548 518.749 236 519C234.752 518.315 234.452 518.251 233 518z"/>
<path style="fill:#ffddc8; stroke:none;" d="M146.667 519.333C146.222 519.778 147.278 519.722 147.333 519.667C147.778 519.222 146.722 519.278 146.667 519.333z"/>
<path style="fill:#ffd5ba; stroke:none;" d="M228 519C229.248 519.685 229.549 519.749 231 520C229.752 519.315 229.452 519.251 228 519z"/>
<path style="fill:#ffcfb0; stroke:none;" d="M388 519L389 520L388 519z"/>
<path style="fill:#ffd8c0; stroke:none;" d="M150.667 520.333C150.222 520.778 151.278 520.722 151.333 520.667C151.778 520.222 150.722 520.278 150.667 520.333M222 520C223.248 520.685 223.549 520.749 225 521C223.752 520.315 223.452 520.251 222 520z"/>
<path style="fill:#ffc7a4; stroke:none;" d="M390 520L391 521L390 520z"/>
<path style="fill:#ffddc8; stroke:none;" d="M155.667 521.333C155.222 521.778 156.278 521.722 156.333 521.667C156.778 521.222 155.722 521.278 155.667 521.333z"/>
<path style="fill:#ffe5d5; stroke:none;" d="M215 521C216.248 521.685 216.548 521.749 218 522C216.752 521.315 216.452 521.251 215 521z"/>
<path style="fill:#ffba90; stroke:none;" d="M218.667 521.333C218.222 521.778 219.278 521.722 219.333 521.667C219.778 521.222 218.722 521.278 218.667 521.333z"/>
<path style="fill:#ffc7a5; stroke:none;" d="M159.667 522.333C159.222 522.778 160.278 522.722 160.333 522.667C160.778 522.222 159.722 522.278 159.667 522.333z"/>
<path style="fill:#ffe5d4; stroke:none;" d="M161.667 522.333C161.222 522.778 162.278 522.722 162.333 522.667C162.778 522.222 161.722 522.278 161.667 522.333z"/>
<path style="fill:#ffddc8; stroke:none;" d="M208 522C209.248 522.685 209.549 522.749 211 523C209.752 522.315 209.452 522.251 208 522z"/>
<path style="fill:#ffb88c; stroke:none;" d="M211.667 522.333C211.222 522.778 212.278 522.722 212.333 522.667C212.778 522.222 211.722 522.278 211.667 522.333z"/>
<path style="fill:#ffbf97; stroke:none;" d="M165.667 523.333C165.222 523.778 166.278 523.722 166.333 523.667C166.778 523.222 165.722 523.278 165.667 523.333z"/>
<path style="fill:#ffe6d6; stroke:none;" d="M167 523C169.052 523.874 170.747 523.953 173 524C170.948 523.126 169.253 523.047 167 523z"/>
<path style="fill:#ffd4ba; stroke:none;" d="M199 523C200.248 523.685 200.549 523.749 202 524C200.752 523.315 200.452 523.251 199 523z"/>
<path style="fill:#ffceb0; stroke:none;" d="M396 523L397 524L396 523z"/>
<path style="fill:#ffae7c; stroke:none;" d="M180 524C183.697 525.552 188.017 525 192 525C188.303 523.448 183.983 524 180 524z"/>
<path style="fill:#ffd1b5; stroke:none;" d="M405 529L406 530L405 529z"/>
<path style="fill:#ffd6bc; stroke:none;" d="M412 535L413 536L412 535z"/>
<path style="fill:#ffd7be; stroke:none;" d="M413 536L414 537L413 536z"/>
<path style="fill:#ffcbab; stroke:none;" d="M422 546L423 547L422 546z"/>
<path style="fill:#ffd5bb; stroke:none;" d="M426 551L427 552L426 551z"/>
<path style="fill:#ffccac; stroke:none;" d="M434 563L435 564L434 563z"/>
<path style="fill:#ffcfb1; stroke:none;" d="M440 573L441 574L440 573z"/>
<path style="fill:#ffd8c0; stroke:none;" d="M443 578L444 579L443 578z"/>
<path style="fill:#ffd0b4; stroke:none;" d="M444 580L445 581L444 580z"/>
<path style="fill:#ffc9a8; stroke:none;" d="M445 582L446 583L445 582z"/>
<path style="fill:#ffd2b7; stroke:none;" d="M450 591L451 592L450 591z"/>
<path style="fill:#ffcaaa; stroke:none;" d="M451 593L452 594L451 593z"/>
<path style="fill:#ffceb0; stroke:none;" d="M454 598L455 599L454 598z"/>
<path style="fill:#ffd1b4; stroke:none;" d="M460 607L461 608L460 607M464 612L465 613L464 612z"/>
<path style="fill:#ffd3b8; stroke:none;" d="M474 622L475 623L474 622z"/>
<path style="fill:#ffc8a6; stroke:none;" d="M480 627L481 628L480 627z"/>
<path style="fill:#ffd8c0; stroke:none;" d="M485 630L486 631L485 630z"/>
<path style="fill:#ffc8a6; stroke:none;" d="M490 633L491 634L490 633z"/>
<path style="fill:#ffceaf; stroke:none;" d="M492 634L493 635L492 634z"/>
<path style="fill:#ffd1b5; stroke:none;" d="M494 635L495 636L494 635z"/>
<path style="fill:#ffe9dc; stroke:none;" d="M501.667 638.333C501.222 638.778 502.278 638.722 502.333 638.667C502.778 638.222 501.722 638.278 501.667 638.333z"/>
<path style="fill:#ffd5ba; stroke:none;" d="M509.667 641.333C509.222 641.778 510.278 641.722 510.333 641.667C510.778 641.222 509.722 641.278 509.667 641.333z"/>
<path style="fill:#ffd7be; stroke:none;" d="M513.667 642.333C513.222 642.778 514.278 642.722 514.333 642.667C514.778 642.222 513.722 642.278 513.667 642.333z"/>
<path style="fill:#ffd5ba; stroke:none;" d="M517 643C518.248 643.685 518.548 643.749 520 644C518.752 643.315 518.452 643.251 517 643z"/>
<path style="fill:#ffddc9; stroke:none;" d="M522.667 644.333C522.222 644.778 523.278 644.722 523.333 644.667C523.778 644.222 522.722 644.278 522.667 644.333z"/>
<path style="fill:#ffc39d; stroke:none;" d="M526.667 645.333C526.222 645.778 527.278 645.722 527.333 645.667C527.778 645.222 526.722 645.278 526.667 645.333z"/>
<path style="fill:#ffe0cc; stroke:none;" d="M528 645C529.248 645.685 529.548 645.749 531 646C529.752 645.315 529.452 645.251 528 645z"/>
<path style="fill:#ffc29b; stroke:none;" d="M533 646C534.248 646.685 534.548 646.749 536 647C534.752 646.315 534.452 646.251 533 646z"/>
<path style="fill:#ffece1; stroke:none;" d="M536 646C537.769 646.779 539.036 646.912 541 647C539.231 646.221 537.964 646.088 536 646z"/>
<path style="fill:#ffbb90; stroke:none;" d="M543 647C544.506 647.683 545.315 647.826 547 648C545.494 647.317 544.685 647.174 543 647z"/>
<path style="fill:#ffd1b5; stroke:none;" d="M547 647C549.332 647.985 551.457 647.981 554 648C551.668 647.015 549.543 647.019 547 647z"/>
<path style="fill:#ffcea1; stroke:none;" d="M536.333 707.667C536.278 707.722 536.222 708.778 536.667 708.333C536.722 708.278 536.778 707.222 536.333 707.667z"/>
<path style="fill:#ffc797; stroke:none;" d="M533.333 718.667C533.278 718.722 533.222 719.778 533.667 719.333C533.722 719.278 533.778 718.222 533.333 718.667z"/>
<path style="fill:#ffcfa2; stroke:none;" d="M532.333 723.667C532.278 723.722 532.222 724.778 532.667 724.333C532.722 724.278 532.778 723.222 532.333 723.667z"/>
<path style="fill:#ffc18f; stroke:none;" d="M531.333 727.667C531.278 727.722 531.222 728.778 531.667 728.333C531.722 728.278 531.778 727.222 531.333 727.667z"/>
<path style="fill:#ffbe8b; stroke:none;" d="M530.333 732.667C530.278 732.722 530.222 733.778 530.667 733.333C530.722 733.278 530.778 732.222 530.333 732.667z"/>
<path style="fill:#ffbd8a; stroke:none;" d="M529 738L529 741C529.696 739.446 529.696 739.554 529 738z"/>
<path style="fill:#ffd0a3; stroke:none;" d="M528 745L528 749C528.71 747.24 528.71 746.76 528 745z"/>
</svg>
