<?xml version="1.0" standalone="no"?>
<!DOCTYPE svg PUBLIC "-//W3C//DTD SVG 20010904//EN"
 "http://www.w3.org/TR/2001/REC-SVG-20010904/DTD/svg10.dtd">
<svg version="1.0" xmlns="http://www.w3.org/2000/svg"
 width="1024.000000pt" height="1024.000000pt" viewBox="0 0 1024.000000 1024.000000"
 preserveAspectRatio="xMidYMid meet">

<g transform="translate(0.000000,1024.000000) scale(0.100000,-0.100000)"
fill="#000000" stroke="none">
<path d="M1970 6979 c-134 -17 -307 -85 -430 -169 -200 -137 -362 -369 -422
-605 -23 -88 -23 -101 -23 -605 0 -502 1 -517 23 -604 44 -176 131 -324 263
-452 125 -120 304 -221 433 -243 l41 -7 5 -219 c3 -149 9 -227 17 -242 37 -64
118 -87 187 -54 24 12 167 127 317 256 l274 234 196 1 c307 0 443 34 622 153
199 133 336 319 399 542 23 79 23 89 23 630 0 545 0 551 -23 635 -89 323 -332
585 -649 700 -152 55 -218 60 -728 59 -253 -1 -489 -5 -525 -10z m1093 -204
c86 -18 240 -90 316 -149 110 -85 200 -202 258 -336 62 -143 64 -173 65 -705
1 -546 0 -549 -79 -715 -80 -166 -248 -311 -438 -377 -77 -26 -89 -27 -335
-33 -214 -4 -260 -8 -280 -21 -44 -30 -497 -421 -512 -444 -4 -5 -8 81 -8 193
0 159 -3 209 -15 231 -14 29 -58 51 -99 51 -46 0 -145 32 -232 75 -156 76
-291 220 -354 378 -59 148 -61 175 -58 709 4 465 5 486 26 556 93 304 338 533
633 591 24 5 269 9 544 10 400 0 514 -2 568 -14z"/>
<path d="M2165 6461 c-90 -24 -191 -114 -218 -194 -10 -32 -20 -44 -43 -51
-128 -38 -186 -82 -230 -173 -23 -45 -27 -68 -27 -131 l1 -76 -44 -39 c-23
-21 -56 -63 -71 -95 -25 -50 -28 -68 -28 -152 0 -81 4 -102 24 -140 54 -102
138 -174 236 -203 l50 -14 25 -74 c34 -99 69 -158 130 -212 122 -110 284 -143
420 -85 25 11 57 30 71 44 l26 25 38 -31 c82 -65 235 -83 347 -40 128 48 238
164 274 288 24 83 25 84 93 103 112 32 194 98 248 202 25 46 28 63 28 152 0
117 -15 153 -90 227 l-47 45 -2 79 c-2 89 -23 147 -75 206 -42 48 -123 88
-177 88 -41 0 -43 1 -67 53 -35 74 -86 128 -159 167 -56 31 -71 34 -143 35
-94 0 -154 -24 -217 -87 l-39 -39 -45 41 c-25 23 -65 51 -89 61 -50 22 -154
32 -200 20z m150 -150 c24 -10 52 -35 70 -61 l30 -43 3 -586 c2 -418 -1 -594
-9 -613 -15 -36 -99 -78 -154 -78 -109 0 -218 70 -269 172 -34 67 -33 86 2 94
156 34 235 93 202 151 -28 48 -42 50 -122 14 -219 -99 -427 -6 -428 192 0 58
14 104 43 142 16 19 17 19 61 -31 30 -34 65 -60 108 -80 55 -25 74 -29 153
-29 147 1 214 44 186 118 -15 38 -32 42 -106 22 -72 -20 -125 -16 -183 14
-105 54 -152 191 -99 291 67 127 237 95 263 -50 9 -48 31 -70 69 -70 58 0 77
54 50 145 -13 45 -28 69 -71 112 l-54 54 19 37 c47 92 143 126 236 83z m526
-4 c45 -24 85 -72 95 -114 5 -18 -2 -32 -29 -58 -48 -46 -77 -111 -77 -170 0
-56 20 -85 59 -85 39 0 49 11 67 70 21 71 38 95 81 115 41 20 100 16 138 -9
69 -46 86 -183 32 -264 -57 -86 -146 -125 -239 -104 -29 6 -63 14 -75 18 -32
9 -65 -28 -61 -69 3 -27 10 -36 53 -57 41 -21 65 -25 135 -25 76 0 92 3 152
33 41 20 82 50 107 78 22 25 45 43 51 39 15 -9 46 -74 55 -112 9 -46 -19 -135
-57 -179 -41 -46 -133 -92 -200 -100 -63 -7 -152 13 -228 51 -39 20 -55 23
-70 15 -45 -24 -52 -80 -14 -115 28 -26 133 -65 176 -65 23 0 28 -4 28 -25 0
-31 -39 -111 -77 -155 -65 -77 -209 -112 -298 -71 -83 38 -77 -8 -79 603 -1
299 2 571 5 605 14 140 148 214 270 150z"/>
<path d="M4380 5470 l0 -570 105 0 105 0 0 194 0 193 149 5 c139 5 152 7 214
35 118 56 191 156 207 286 26 214 -91 378 -295 416 -32 6 -155 11 -272 11
l-213 0 0 -570z m468 356 c47 -24 79 -64 91 -112 23 -90 -12 -173 -89 -211
-38 -20 -60 -23 -152 -23 l-108 0 0 178 c0 98 3 182 8 186 13 15 215 0 250
-18z"/>
<path d="M6857 6018 c-2 -13 -4 -268 -3 -568 l1 -545 229 -3 c126 -1 254 2
284 8 175 32 283 152 283 312 0 118 -46 211 -125 253 -35 19 -47 35 -26 35 26
0 100 85 120 136 41 110 18 218 -63 298 -86 84 -107 89 -423 94 l-271 4 -6
-24z m490 -191 c63 -33 85 -136 41 -192 -34 -44 -75 -55 -203 -55 l-115 0 0
136 0 136 123 -4 c89 -3 131 -9 154 -21z m3 -449 c104 -54 109 -206 8 -268
-28 -17 -51 -20 -160 -20 l-128 0 0 155 0 155 118 0 c102 0 123 -3 162 -22z"/>
<path d="M8807 5923 c-4 -3 -7 -48 -7 -100 l0 -93 -60 0 c-41 0 -60 -4 -61
-12 -1 -12 0 -145 1 -160 0 -5 27 -8 60 -8 l60 0 0 -228 c0 -250 9 -305 57
-362 47 -56 97 -75 199 -75 122 0 126 3 122 113 l-3 86 -61 -3 c-56 -2 -63 0
-83 25 -20 25 -21 38 -21 235 l0 209 85 0 85 0 0 90 0 90 -85 0 -85 0 0 100 0
100 -98 0 c-54 0 -102 -3 -105 -7z"/>
<path d="M5471 5735 c-123 -35 -191 -124 -191 -250 1 -117 78 -195 250 -250
123 -39 170 -88 136 -140 -47 -71 -173 -54 -247 33 l-34 41 -68 -36 c-38 -20
-71 -42 -74 -49 -14 -37 75 -130 166 -173 49 -23 68 -26 161 -26 88 0 113 4
156 23 61 28 117 82 139 135 18 44 22 139 6 178 -26 70 -114 133 -241 174 -80
26 -127 52 -146 80 -32 49 13 97 94 98 56 1 95 -18 145 -69 l36 -37 63 31 c98
48 95 43 65 95 -53 90 -156 145 -286 152 -50 3 -94 0 -130 -10z"/>
<path d="M8090 5736 c-122 -26 -226 -113 -283 -234 -27 -58 -32 -80 -35 -168
-5 -117 12 -191 60 -266 122 -193 397 -247 598 -118 134 86 208 264 181 432
-41 257 -266 410 -521 354z m185 -195 c87 -39 130 -127 123 -250 -4 -66 -10
-88 -34 -127 -89 -144 -312 -117 -369 45 -21 61 -19 176 4 226 50 109 170 155
276 106z"/>
<path d="M5945 5708 c4 -13 70 -183 147 -378 77 -195 143 -365 145 -378 3 -14
-7 -48 -26 -86 -32 -65 -63 -89 -146 -113 -28 -8 -30 -11 -33 -68 -2 -32 0
-70 3 -83 6 -24 8 -24 83 -20 124 7 202 60 260 174 28 54 382 948 382 963 0 8
-31 11 -107 9 l-108 -3 -94 -272 c-51 -150 -96 -273 -100 -273 -4 0 -48 123
-98 273 l-91 272 -112 3 -112 3 7 -23z"/>
</g>
</svg>
