<?xml version="1.0" standalone="no"?>
<!DOCTYPE svg PUBLIC "-//W3C//DTD SVG 20010904//EN"
 "http://www.w3.org/TR/2001/REC-SVG-20010904/DTD/svg10.dtd">
<svg version="1.0" xmlns="http://www.w3.org/2000/svg"
 width="1024.000000pt" height="1024.000000pt" viewBox="0 0 1024.000000 1024.000000"
 preserveAspectRatio="xMidYMid meet">

<g transform="translate(0.000000,1024.000000) scale(0.100000,-0.100000)"
fill="#000000" stroke="none">
<path d="M5057 9030 c-96 -24 -191 -109 -221 -197 -52 -153 24 -324 171 -385
l53 -22 0 -153 0 -153 -162 0 c-90 0 -205 -7 -258 -14 -376 -57 -726 -325
-901 -690 l-40 -83 -76 -11 c-127 -20 -218 -86 -275 -200 -22 -44 -23 -60 -26
-260 l-3 -214 29 -63 c57 -121 162 -193 293 -203 l68 -5 31 -65 c39 -83 94
-165 181 -268 118 -139 278 -259 437 -325 77 -32 240 -77 293 -81 28 -2 29 -4
29 -53 l0 -50 -273 1 c-383 2 -515 -17 -683 -95 -260 -122 -443 -330 -528
-600 -39 -124 -47 -244 -44 -669 l3 -384 33 -29 32 -29 1893 0 c1493 0 1897 3
1917 13 14 7 33 28 43 47 17 32 18 67 14 470 -3 405 -5 440 -25 512 -49 178
-132 328 -251 452 -89 93 -162 147 -267 200 -191 96 -277 110 -676 111 l-308
0 0 47 c0 41 3 48 23 52 271 50 432 124 630 291 99 83 245 278 297 397 l25 56
67 5 c37 3 88 15 112 26 63 28 137 100 172 168 l29 58 0 215 c0 212 0 216 -27
272 -52 111 -147 180 -279 202 l-70 12 -43 85 c-161 321 -443 561 -770 654
-113 32 -226 45 -398 45 l-138 0 0 154 0 153 44 17 c60 23 131 88 164 150 23
44 27 63 27 136 0 73 -4 92 -27 136 -31 59 -94 118 -154 145 -50 23 -136 31
-187 19z m136 -144 c67 -27 116 -120 102 -189 -9 -41 -48 -93 -89 -118 -69
-42 -176 -15 -226 58 -35 51 -35 135 0 186 45 67 138 95 213 63z m482 -925
c406 -114 720 -465 806 -901 19 -94 16 -337 -5 -433 -90 -417 -394 -742 -791
-846 -139 -37 -244 -43 -625 -39 -360 5 -367 5 -469 32 -336 90 -583 289 -731
589 -217 444 -130 969 221 1317 157 156 334 254 535 295 54 11 166 13 524 11
438 -2 458 -3 535 -25z m-2032 -818 c-9 -34 -17 -130 -20 -228 -5 -163 0 -219
33 -382 l6 -31 -43 9 c-63 14 -119 56 -148 112 -24 47 -25 56 -24 230 0 166 2
186 21 222 36 67 61 90 119 111 70 24 72 22 56 -43z m3023 38 c49 -22 97 -78
113 -130 14 -48 15 -343 0 -394 -19 -70 -110 -147 -174 -147 -29 0 -29 -4 -10
80 24 109 30 348 12 471 -9 58 -19 113 -23 122 -9 23 29 22 82 -2z m-1226
-1596 l0 -45 -320 0 -320 0 0 45 0 45 320 0 320 0 0 -45z m870 -202 c133 -37
257 -104 358 -192 l33 -28 -35 -51 c-39 -58 -73 -142 -87 -216 -5 -27 -9 -212
-9 -412 0 -309 -2 -370 -16 -411 -33 -98 -107 -173 -198 -203 -32 -10 -286
-13 -1239 -12 -1331 1 -1253 -3 -1335 68 -24 21 -55 62 -74 102 l-33 67 -6
410 c-4 293 -9 421 -18 450 -17 53 -57 132 -87 172 -13 17 -24 34 -24 37 0 3
27 26 60 51 68 53 201 125 275 150 127 43 138 44 1275 42 1073 -2 1086 -3
1160 -24z m-2824 -354 c14 -23 35 -67 46 -98 19 -52 21 -83 24 -447 1 -260 6
-406 14 -435 15 -55 56 -137 83 -166 l20 -23 -197 0 -197 0 3 413 c4 388 5
417 26 491 26 95 60 171 110 248 20 32 38 58 39 58 2 0 15 -19 29 -41z m3332
-16 c47 -73 89 -170 113 -258 21 -75 23 -106 27 -487 l4 -408 -197 0 -196 0
24 33 c37 48 64 106 81 174 13 50 16 126 16 430 0 308 3 378 16 424 17 58 60
139 73 139 5 0 23 -21 39 -47z"/>
<path d="M4450 7530 c-183 -32 -350 -157 -429 -322 -51 -106 -65 -183 -58
-306 8 -144 56 -261 147 -365 57 -65 172 -139 261 -168 l74 -24 680 0 680 0
78 27 c135 48 231 121 305 232 73 109 97 194 96 341 0 134 -19 200 -85 311
-47 78 -156 177 -243 219 -129 64 -141 65 -836 64 -344 -1 -645 -5 -670 -9z
m1413 -148 c129 -52 235 -163 276 -290 28 -83 28 -216 2 -301 -45 -146 -164
-262 -310 -305 -47 -14 -141 -16 -706 -16 -567 0 -658 2 -706 16 -226 66 -371
301 -330 532 32 179 152 319 321 373 51 17 107 18 725 16 l670 -2 58 -23z"/>
<path d="M4475 7122 c-52 -24 -102 -82 -111 -127 -18 -100 19 -191 97 -234 34
-19 52 -23 109 -19 58 3 75 8 107 34 56 44 85 107 80 170 -8 108 -79 182 -183
190 -44 4 -69 0 -99 -14z"/>
<path d="M5610 7125 c-89 -40 -139 -134 -119 -224 24 -108 102 -166 214 -159
53 3 71 9 102 34 21 17 48 50 61 75 48 92 10 215 -82 262 -51 27 -131 32 -176
12z"/>
<path d="M4786 6174 c-25 -24 -20 -71 11 -100 44 -41 145 -84 231 -99 136 -24
280 5 389 78 41 27 48 38 51 68 6 75 -56 91 -129 34 -64 -49 -117 -65 -219
-65 -102 0 -155 16 -219 65 -48 38 -90 45 -115 19z"/>
<path d="M4177 5012 c-22 -24 -21 -65 1 -85 17 -16 97 -17 941 -17 617 0 929
3 942 10 13 7 19 21 19 45 0 70 69 65 -959 65 -886 0 -929 -1 -944 -18z"/>
<path d="M4474 4572 c-13 -8 -34 -46 -34 -61 0 -6 9 -20 20 -31 20 -20 33 -20
659 -20 702 0 671 -3 671 59 0 64 28 61 -671 61 -349 0 -639 -4 -645 -8z"/>
<path d="M2114 8505 c-195 -43 -366 -212 -418 -412 -22 -83 -22 -365 -1 -448
24 -93 72 -181 136 -250 70 -74 135 -118 227 -154 66 -25 74 -25 366 -29 l300
-4 170 -119 c100 -70 180 -119 193 -119 13 0 35 11 48 25 24 23 25 30 25 152
l0 128 51 30 c114 67 218 211 254 350 21 81 21 329 0 410 -50 196 -198 360
-385 427 -64 23 -73 23 -485 25 -322 1 -434 -1 -481 -12z m990 -159 c121 -61
206 -168 241 -301 17 -68 20 -285 4 -354 -27 -119 -128 -249 -234 -300 -27
-14 -55 -32 -62 -40 -8 -10 -12 -53 -13 -113 0 -54 -2 -98 -5 -98 -2 0 -64 43
-137 95 l-132 95 -286 0 c-360 0 -410 11 -524 111 -61 54 -108 127 -136 210
-19 57 -21 81 -18 239 3 173 3 176 35 242 52 110 148 199 256 238 48 17 85 19
493 17 l441 -2 77 -39z"/>
<path d="M2119 7941 c-21 -22 -29 -39 -29 -66 0 -51 44 -95 95 -95 51 0 95 44
95 95 0 51 -44 95 -95 95 -27 0 -44 -8 -66 -29z"/>
<path d="M2509 7941 c-83 -83 32 -213 124 -141 34 27 44 78 23 118 -31 60 -99
71 -147 23z"/>
<path d="M2901 7944 c-26 -21 -31 -33 -31 -69 0 -36 5 -48 31 -69 55 -47 130
-26 148 41 27 97 -72 161 -148 97z"/>
<path d="M2812 2752 c-19 -13 -20 -991 0 -1003 20 -13 162 -11 176 3 8 8 12
59 12 165 l0 153 78 0 c156 0 266 34 337 105 112 113 125 320 27 451 -29 37
-56 59 -116 89 l-78 40 -212 3 c-116 1 -217 -1 -224 -6z m420 -190 c49 -31 73
-91 65 -170 -10 -112 -53 -145 -199 -150 l-98 -4 0 177 0 177 98 -4 c79 -3
104 -8 134 -26z"/>
<path d="M5013 2749 c-18 -18 -19 -979 -1 -997 9 -9 69 -12 207 -12 278 0 365
22 445 110 55 61 70 102 70 195 0 63 -5 89 -21 121 -25 48 -83 101 -119 110
l-25 6 35 25 c69 46 97 154 68 259 -18 61 -80 126 -154 160 -62 29 -65 29
-278 32 -164 3 -218 0 -227 -9z m378 -169 c56 -16 84 -52 84 -110 0 -86 -53
-120 -190 -120 l-85 0 0 120 0 120 78 0 c42 0 93 -5 113 -10z m66 -409 c72
-33 96 -123 50 -192 -31 -47 -96 -68 -214 -69 l-93 0 0 140 0 140 108 0 c83 0
116 -5 149 -19z"/>
<path d="M6762 2688 c-8 -8 -12 -46 -12 -105 l0 -93 -43 0 c-24 0 -48 -5 -55
-12 -7 -7 -12 -37 -12 -68 0 -31 5 -61 12 -68 7 -7 31 -12 55 -12 l43 0 0
-209 c0 -229 8 -271 58 -324 51 -54 77 -62 202 -62 91 1 122 4 149 19 31 17
33 20 27 58 -4 22 -13 53 -21 69 -15 29 -16 29 -88 23 -63 -6 -75 -4 -97 14
-25 20 -25 22 -30 216 l-5 195 100 3 100 3 0 75 0 75 -100 3 -100 3 3 84 c5
119 0 125 -96 125 -47 0 -83 -5 -90 -12z"/>
<path d="M3767 2500 c-124 -32 -187 -107 -187 -225 0 -117 67 -185 225 -229
98 -27 135 -47 142 -74 21 -83 -94 -104 -238 -43 -41 17 -82 31 -91 31 -23 0
-70 -92 -66 -127 7 -58 176 -110 324 -101 179 11 284 109 272 254 -6 67 -45
128 -103 161 -22 13 -83 36 -136 53 -53 16 -103 38 -112 48 -24 27 -21 59 8
78 33 22 123 14 190 -15 27 -12 56 -19 65 -16 9 3 30 29 45 57 l28 52 -34 28
c-70 58 -235 92 -332 68z"/>
<path d="M6125 2496 c-109 -26 -208 -104 -254 -199 -32 -66 -46 -173 -32 -248
23 -133 93 -227 209 -282 62 -30 75 -32 172 -32 93 0 112 3 162 27 79 37 142
98 181 177 30 63 32 71 32 181 0 107 -2 119 -29 174 -80 163 -261 246 -441
202z m162 -171 c48 -20 71 -41 95 -88 58 -115 13 -281 -88 -323 -135 -57 -264
45 -264 207 0 158 127 258 257 204z"/>
<path d="M4194 2476 c-3 -8 40 -137 96 -288 56 -150 116 -313 135 -363 l33
-90 -19 -50 c-10 -27 -31 -61 -46 -74 -23 -20 -34 -22 -74 -18 -59 7 -69 -3
-76 -80 -7 -78 5 -88 106 -88 59 0 85 5 117 22 60 32 118 103 152 186 67 162
303 819 300 835 -3 14 -18 18 -84 20 -57 2 -84 -1 -91 -10 -6 -7 -49 -125 -96
-263 -47 -137 -88 -243 -91 -235 -3 8 -40 121 -82 250 -42 129 -81 241 -87
248 -14 18 -186 17 -193 -2z"/>
</g>
</svg>
