<?xml version="1.0" standalone="no"?>
<!DOCTYPE svg PUBLIC "-//W3C//DTD SVG 20010904//EN"
 "http://www.w3.org/TR/2001/REC-SVG-20010904/DTD/svg10.dtd">
<svg version="1.0" xmlns="http://www.w3.org/2000/svg"
 width="1024.000000pt" height="1024.000000pt" viewBox="0 0 1024.000000 1024.000000"
 preserveAspectRatio="xMidYMid meet">

<g transform="translate(0.000000,1024.000000) scale(0.100000,-0.100000)"
fill="#000000" stroke="none">
<path d="M4905 9138 c-315 -33 -624 -216 -795 -472 -67 -101 -142 -259 -170
-358 -11 -43 -34 -166 -49 -274 l-29 -196 -60 -122 c-34 -66 -109 -199 -167
-294 -121 -197 -157 -278 -181 -411 -29 -161 4 -351 89 -501 33 -57 118 -163
171 -211 38 -35 127 -83 184 -100 23 -7 42 -15 42 -20 0 -4 -78 -47 -172 -95
-205 -105 -260 -144 -358 -252 -175 -193 -271 -361 -384 -672 -36 -96 -83
-223 -105 -281 -52 -137 -132 -401 -166 -554 -35 -154 -44 -345 -21 -453 51
-241 235 -413 490 -457 104 -18 416 -20 681 -5 217 12 647 80 834 131 69 19
77 19 114 4 90 -36 178 -47 364 -46 184 1 229 8 286 45 22 15 29 15 92 -10
215 -80 610 -127 1095 -128 262 -1 314 1 370 17 323 87 502 363 461 713 -21
181 -107 495 -217 789 -31 83 -73 197 -94 255 -58 161 -76 204 -140 334 -71
144 -129 223 -244 334 -104 100 -192 159 -387 257 -82 42 -149 79 -149 83 0 4
37 26 83 49 167 86 282 196 351 337 52 107 70 184 70 311 0 183 -41 291 -231
608 -149 249 -176 316 -229 574 -54 266 -112 418 -230 594 -55 84 -197 234
-277 295 -74 56 -218 126 -302 148 -117 29 -476 49 -620 34z m400 -118 c121
-14 214 -30 265 -46 246 -77 492 -360 604 -694 14 -42 41 -157 61 -255 49
-242 75 -311 196 -521 249 -432 255 -446 253 -629 -1 -100 -5 -132 -26 -191
-60 -169 -213 -309 -414 -378 -38 -13 -83 -30 -100 -37 -28 -11 -40 -10 -105
13 -41 14 -105 35 -144 47 -72 21 -175 75 -175 90 0 5 29 48 64 94 35 47 84
126 109 176 42 83 117 292 117 324 0 16 54 67 101 95 182 109 236 380 108 535
-20 24 -58 51 -98 70 -65 31 -67 34 -108 117 -25 49 -48 114 -55 153 -8 43
-20 75 -33 86 -11 10 -79 37 -151 60 -102 32 -145 51 -190 84 -137 101 -283
316 -300 439 -11 82 -59 90 -89 16 -50 -125 -208 -307 -350 -403 -116 -78
-196 -112 -352 -151 -75 -18 -143 -39 -150 -47 -7 -7 -22 -51 -34 -97 -12 -47
-33 -107 -47 -133 -30 -56 -84 -107 -113 -107 -51 0 -149 -78 -181 -145 -23
-46 -30 -83 -29 -161 1 -180 113 -351 241 -369 l49 -7 31 -101 c56 -180 156
-364 259 -477 23 -25 41 -48 41 -51 0 -11 -131 -66 -259 -109 -116 -40 -129
-42 -195 -35 -114 11 -166 24 -252 66 -84 39 -148 97 -213 193 -57 82 -98 274
-87 407 11 138 61 251 239 544 159 264 191 343 202 505 23 360 174 666 417
848 126 94 305 168 463 191 103 15 235 12 430 -9z m29 -699 c89 -115 177 -187
309 -250 67 -33 138 -65 158 -72 35 -12 38 -16 73 -124 49 -149 76 -186 173
-245 94 -57 114 -86 121 -180 4 -57 1 -76 -20 -122 -37 -80 -101 -137 -169
-152 -27 -6 -31 -16 -94 -228 -14 -48 -53 -142 -86 -209 -53 -106 -72 -132
-147 -208 -102 -103 -182 -147 -338 -186 -116 -30 -284 -34 -379 -10 -293 74
-502 336 -615 768 -19 72 -26 87 -39 81 -62 -26 -88 -27 -124 -5 -93 57 -137
278 -74 373 26 39 96 77 149 80 24 2 38 8 38 17 0 7 21 41 46 75 55 72 81 125
94 197 10 53 22 69 50 69 35 0 200 54 278 90 161 75 348 222 438 344 l48 65
34 -56 c18 -31 53 -82 76 -112z m-646 -1990 c79 -55 219 -105 345 -121 149
-20 340 16 506 95 l93 45 68 -45 c38 -25 91 -55 119 -67 60 -24 60 -23 -2
-141 -96 -182 -302 -341 -518 -398 -155 -42 -316 -29 -500 40 -111 42 -236
144 -311 254 -44 65 -108 193 -108 217 0 10 18 23 48 33 26 10 85 38 132 62
47 24 89 44 93 44 5 1 21 -7 35 -18z m-393 -188 c9 -27 35 -81 56 -121 112
-212 277 -343 524 -418 81 -25 105 -28 235 -27 116 0 161 4 225 21 281 76 547
312 625 555 9 29 16 37 29 34 182 -59 515 -214 640 -300 132 -90 295 -300 376
-484 117 -267 298 -786 363 -1043 35 -139 37 -152 37 -310 0 -149 -3 -171 -23
-222 -34 -85 -81 -147 -149 -200 -136 -102 -247 -121 -684 -116 -173 3 -321 8
-327 12 -9 5 -9 14 2 34 55 109 78 389 42 522 -9 36 -20 77 -23 91 l-5 25 124
13 c229 23 532 72 550 88 10 9 18 27 18 40 0 39 -37 46 -150 28 -53 -9 -128
-15 -166 -13 l-68 3 -12 105 c-22 194 -75 515 -93 563 -19 49 -81 54 -96 7 -3
-10 14 -142 39 -292 25 -150 48 -305 52 -344 l6 -72 -28 -6 c-16 -3 -83 -8
-149 -12 l-120 -6 -100 87 c-85 74 -180 145 -304 227 -43 29 -201 77 -291 89
-138 18 -327 4 -432 -31 -187 -63 -303 -140 -329 -219 -15 -44 -11 -42 -137
-91 -125 -49 -314 -94 -339 -81 -10 5 -101 17 -203 26 -102 9 -189 21 -194 26
-11 10 12 206 54 464 41 248 40 265 -22 265 -20 0 -31 -8 -42 -29 -9 -16 -38
-170 -66 -342 -27 -171 -55 -318 -62 -326 -12 -15 -67 -12 -207 12 -85 15
-136 6 -144 -25 -14 -54 60 -81 268 -100 66 -6 194 -20 285 -30 91 -11 191
-22 223 -26 65 -7 65 -7 40 -98 -12 -42 -17 -101 -17 -191 -1 -137 17 -223 66
-318 11 -22 18 -40 16 -42 -9 -9 -513 -30 -708 -30 -183 0 -237 4 -290 18
-253 68 -380 236 -380 501 0 177 55 412 174 752 216 614 278 745 455 958 71
84 112 114 323 234 188 108 416 208 479 211 11 1 22 -16 34 -46z m1262 -1582
c119 -33 176 -65 318 -179 129 -103 231 -211 261 -277 32 -70 44 -185 33 -308
-11 -117 -23 -163 -52 -195 -24 -26 -103 -52 -158 -52 -98 0 -365 69 -376 97
-4 9 6 38 21 66 24 42 28 57 24 108 -6 77 -41 123 -128 166 -134 66 -388 92
-545 57 -164 -37 -221 -28 -199 34 8 24 20 30 99 51 76 20 114 24 245 24 162
0 261 -15 344 -52 145 -64 250 -42 256 54 5 70 0 86 -42 131 -54 59 -196 129
-298 148 -41 8 -127 17 -190 21 -110 6 -203 -5 -342 -40 -24 -6 -28 -4 -28 14
0 27 67 71 172 111 115 45 137 48 318 49 153 1 173 -1 267 -28z m-250 -231
c134 -28 223 -59 223 -79 0 -4 15 -12 33 -17 25 -8 33 -16 35 -37 3 -25 1 -27
-36 -27 -25 0 -49 8 -66 21 -71 56 -257 83 -466 69 -160 -11 -228 -25 -293
-64 -67 -40 -92 -87 -82 -154 5 -35 16 -55 45 -84 34 -34 43 -38 89 -38 29 0
84 7 123 16 109 25 332 15 462 -20 109 -29 131 -41 152 -81 32 -63 8 -68 -146
-35 -83 19 -122 21 -357 18 l-263 -3 -32 -32 c-32 -33 -41 -74 -25 -119 7 -20
2 -23 -70 -42 -188 -50 -284 -53 -329 -11 -45 42 -68 115 -72 232 -5 120 9
209 40 272 28 53 38 59 138 86 47 12 129 40 183 61 82 33 103 38 125 30 62
-23 83 -22 170 8 105 36 195 58 241 59 18 1 98 -12 178 -29z m-2 -621 c87 -16
117 -34 113 -67 -3 -23 -10 -29 -48 -39 -75 -19 -259 -16 -373 8 -156 31 -224
68 -190 102 11 11 435 8 498 -4z"/>
<path d="M4697 7869 c-77 -30 -147 -83 -147 -111 0 -8 6 -23 14 -34 13 -17 17
-18 38 -5 108 67 196 92 248 71 24 -10 36 -10 60 0 25 10 30 18 30 46 0 72
-105 87 -243 33z"/>
<path d="M5385 7873 c-53 -13 -83 -76 -50 -103 13 -10 23 -10 55 5 49 22 74
16 162 -36 71 -43 102 -45 113 -9 24 74 -165 171 -280 143z"/>
<path d="M5425 7596 c-30 -30 -41 -87 -26 -135 14 -49 40 -71 89 -78 34 -5 45
-1 66 20 29 29 32 60 11 97 -8 14 -14 37 -15 51 0 33 -39 69 -74 69 -15 0 -37
-10 -51 -24z"/>
<path d="M4724 7595 c-72 -50 -45 -205 36 -205 42 0 82 49 87 107 5 42 1 53
-22 81 -30 35 -67 42 -101 17z"/>
<path d="M5110 7404 c0 -9 11 -48 25 -86 27 -74 32 -127 15 -159 -8 -14 -21
-19 -55 -19 -37 0 -47 -5 -61 -25 -34 -53 14 -94 94 -81 47 7 82 33 105 77 28
52 20 178 -17 253 -26 54 -29 56 -67 56 -29 0 -39 -4 -39 -16z"/>
<path d="M5261 6878 c-62 -28 -169 -34 -261 -13 -113 26 -132 25 -144 -7 -13
-36 10 -62 73 -83 147 -48 366 -29 434 39 23 23 22 63 -2 76 -27 14 -49 12
-100 -12z"/>
<path d="M4047 2723 c-4 -3 -7 -210 -7 -458 0 -513 -7 -475 86 -483 85 -7 84
-10 84 217 0 216 9 255 65 299 37 30 103 30 140 0 49 -38 55 -69 55 -282 l0
-195 26 -20 c32 -25 115 -29 133 -7 9 11 11 82 9 263 -3 232 -4 251 -25 288
-40 75 -98 115 -190 130 -57 9 -147 -11 -183 -42 l-30 -25 0 142 c0 78 -5 150
-10 161 -9 16 -22 19 -79 19 -37 0 -71 -3 -74 -7z"/>
<path d="M5507 2723 c-4 -3 -7 -208 -7 -455 0 -435 1 -449 20 -468 23 -23 117
-29 138 -8 16 16 17 889 2 919 -9 16 -22 19 -79 19 -37 0 -71 -3 -74 -7z"/>
<path d="M1545 2702 l-40 -7 -3 -442 c-2 -391 0 -443 14 -457 19 -19 124 -22
142 -4 8 8 12 58 12 160 l0 148 90 0 c149 0 235 27 296 92 51 53 67 95 72 183
8 156 -66 267 -208 310 -60 18 -304 29 -375 17z m306 -162 c19 -5 48 -23 64
-40 23 -24 29 -41 32 -87 7 -109 -45 -154 -189 -161 l-88 -4 0 151 0 151 73 0
c39 0 88 -5 108 -10z"/>
<path d="M2326 2456 c-57 -21 -87 -47 -114 -97 -19 -36 -23 -55 -20 -105 6
-103 57 -150 221 -204 38 -12 80 -32 95 -45 23 -20 25 -26 15 -48 -24 -52
-157 -55 -242 -6 -43 25 -62 18 -90 -32 -31 -54 -19 -82 47 -112 58 -26 231
-36 296 -17 102 29 155 97 156 195 0 103 -52 156 -210 211 -58 20 -111 41
-118 47 -20 16 -10 60 18 75 37 19 150 10 195 -17 51 -30 63 -27 84 20 27 58
14 91 -47 121 -60 29 -224 37 -286 14z"/>
<path d="M3608 2453 c-186 -70 -269 -249 -207 -448 17 -55 31 -78 72 -120 71
-70 132 -97 226 -103 90 -5 139 7 204 48 56 35 59 55 16 104 -42 48 -59 51
-115 21 -124 -67 -239 20 -239 180 0 87 25 134 89 164 54 27 95 26 156 0 66
-29 93 -21 120 35 27 57 17 80 -48 109 -65 29 -209 34 -274 10z"/>
<path d="M4949 2457 c-88 -33 -164 -102 -201 -182 -19 -42 -23 -67 -23 -150 0
-122 23 -181 95 -249 75 -70 120 -89 225 -94 115 -5 181 18 259 89 78 72 101
128 101 254 0 89 -3 106 -28 156 -32 67 -100 132 -165 162 -59 26 -209 34
-263 14z m174 -151 c44 -18 95 -78 103 -122 12 -66 -2 -143 -34 -183 -76 -95
-183 -94 -258 4 -22 30 -29 50 -32 101 -5 72 8 114 47 158 48 53 112 68 174
42z"/>
<path d="M5999 2457 c-88 -33 -164 -103 -203 -186 -17 -38 -21 -65 -21 -151 0
-95 3 -110 27 -155 32 -61 97 -125 158 -157 39 -20 60 -23 150 -23 95 0 110 3
160 28 30 16 70 43 88 60 166 158 120 463 -86 564 -46 22 -72 28 -146 30 -59
2 -104 -2 -127 -10z m168 -152 c50 -21 72 -42 94 -90 36 -77 16 -188 -42 -242
-76 -69 -190 -51 -244 40 -20 35 -25 57 -25 112 0 87 29 143 92 174 51 25 76
26 125 6z"/>
<path d="M6713 2451 c-65 -30 -127 -93 -158 -164 -25 -54 -29 -74 -28 -157 0
-126 25 -194 99 -266 112 -109 267 -113 375 -8 l36 35 -8 -48 c-16 -100 -51
-144 -137 -169 -67 -20 -124 -14 -200 21 -72 33 -86 32 -106 -10 -25 -52 -18
-95 19 -117 93 -53 294 -63 407 -19 68 26 132 86 161 149 21 45 22 64 25 386
4 399 9 379 -97 374 l-66 -3 -3 -32 c-2 -18 -6 -33 -9 -33 -3 0 -20 13 -39 29
-18 17 -50 35 -71 40 -60 17 -153 13 -200 -8z m204 -142 c100 -38 143 -196 79
-292 -70 -104 -205 -103 -264 1 -28 51 -37 116 -23 170 13 45 62 109 95 122
30 12 80 12 113 -1z"/>
<path d="M8205 2457 c-114 -45 -179 -124 -205 -251 -36 -175 52 -348 209 -407
117 -44 287 -11 365 70 l28 30 -22 35 c-12 20 -31 43 -42 51 -19 13 -27 11
-83 -20 -53 -30 -71 -35 -128 -35 -56 0 -70 4 -97 26 -26 23 -60 72 -60 88 0
3 105 7 233 8 l232 3 -1 90 c0 106 -26 175 -89 239 -62 62 -124 86 -225 85
-47 0 -98 -6 -115 -12z m175 -143 c43 -17 74 -53 85 -97 l7 -27 -151 0 c-99 0
-151 4 -151 10 0 23 32 70 62 93 52 39 89 45 148 21z"/>
<path d="M2715 2450 c-3 -5 51 -151 120 -325 69 -174 125 -323 125 -331 0 -29
-31 -83 -58 -100 -14 -9 -51 -20 -81 -23 l-56 -6 -3 -54 c-4 -75 12 -91 92
-91 105 0 186 52 235 149 10 20 51 126 90 236 40 110 99 273 133 362 33 89 58
169 54 178 -8 23 -138 21 -158 -2 -8 -10 -45 -115 -83 -233 l-69 -215 -47 135
c-121 350 -109 330 -214 330 -41 0 -77 -4 -80 -10z"/>
<path d="M7314 2446 c-3 -8 -4 -124 -2 -258 l3 -245 30 -49 c21 -33 48 -60 85
-81 47 -29 63 -33 121 -33 72 0 124 16 153 49 22 24 36 27 36 7 0 -8 12 -24
27 -36 21 -16 38 -20 77 -18 l51 3 3 324 c2 236 -1 327 -9 338 -9 10 -31 13
-83 11 l-71 -3 -5 -215 c-5 -230 -7 -239 -61 -284 -57 -48 -130 -29 -166 44
-21 41 -23 57 -23 236 0 226 1 224 -99 224 -43 0 -63 -4 -67 -14z"/>
</g>
</svg>
